<svg width="180" height="180" viewBox="0 0 180 180" fill="none" xmlns="http://www.w3.org/2000/svg">
<path d="M89.9999 112.444C77.6108 112.444 67.5376 102.37 67.5376 89.9811C67.5376 77.592 77.6108 67.5188 89.9999 67.5188C102.389 67.5188 112.462 77.592 112.462 89.9811C112.443 102.37 102.37 112.444 89.9999 112.444ZM89.9999 76.9518C82.8074 76.9518 76.9518 82.8075 76.9518 90C76.9518 97.1924 82.8074 103.048 89.9999 103.048C97.1924 103.048 103.048 97.1924 103.048 90C103.048 82.8075 97.1924 76.9518 89.9999 76.9518Z" fill="#32E2DF"/>
<path d="M90.0378 129.559C87.3265 129.559 84.6152 129.276 81.9416 128.73C71.6047 126.584 62.7177 120.521 56.9186 111.69C51.1194 102.86 49.1235 92.2971 51.27 81.9414C53.134 72.9791 58.0859 64.9017 65.1842 59.1778C72.2072 53.5293 81.0002 50.4226 89.9625 50.4226C92.6738 50.4226 95.3851 50.705 98.0587 51.251C108.396 53.3975 117.283 59.4602 123.082 68.2908C128.881 77.1213 130.877 87.6841 128.73 98.0398C126.866 107.002 121.914 115.08 114.816 120.803C107.774 126.452 98.9813 129.559 90.0378 129.559ZM89.9625 59.8368C75.7847 59.8368 63.3767 69.9288 60.4771 83.8431C57.088 100.111 67.5755 116.115 83.8432 119.504C85.8767 119.937 87.9666 120.144 90.0189 120.144C104.197 120.144 116.605 110.052 119.504 96.1381C121.142 88.249 119.617 80.2092 115.211 73.4686C110.806 66.728 104.027 62.1151 96.1382 60.477C94.1047 60.0628 92.0148 59.8368 89.9625 59.8368Z" fill="#32E2DF"/>
<path d="M90.0566 146.109C88.3244 146.109 86.5733 146.034 84.8222 145.864C69.8913 144.49 56.4101 137.372 46.8264 125.849C37.2428 114.326 32.7428 99.7533 34.1172 84.8411C35.4164 70.8328 41.8557 57.8976 52.2867 48.4645C62.6423 39.0691 76.0105 33.9102 89.9247 33.9102C91.657 33.9102 93.408 33.9854 95.159 34.1549C110.09 35.5294 123.571 42.6465 133.155 54.1695C142.739 65.6926 147.239 80.2658 145.864 95.1968C144.565 109.205 138.126 122.14 127.695 131.573C117.339 140.931 103.971 146.109 90.0566 146.109ZM89.9247 43.3055C65.6925 43.3055 45.7344 61.5315 43.4938 85.7072C41.1214 111.352 60.044 134.134 85.6883 136.506C87.1381 136.638 88.6068 136.714 90.0566 136.714C114.289 136.714 134.247 118.488 136.487 94.3118C138.86 68.6674 119.937 45.8851 94.293 43.5127C92.8432 43.362 91.3745 43.3055 89.9247 43.3055Z" fill="#32E2DF"/>
<path d="M90.0377 162.979C89.1904 162.979 88.3242 162.96 87.4581 162.942C77.6109 162.603 68.1214 160.343 59.2532 156.22C50.6862 152.247 43.0795 146.711 36.6025 139.783C30.1255 132.854 25.1548 124.87 21.7845 116.059C18.2824 106.927 16.7008 97.3055 17.0397 87.4583C17.6987 68.4227 25.6067 50.6674 39.3326 37.4499C53.0021 24.27 70.9833 17.0022 89.9435 17.0022C90.7908 17.0022 91.6569 17.021 92.523 17.0398C102.37 17.3788 111.86 19.6382 120.728 23.7616C129.295 27.7344 136.902 33.27 143.379 40.1988C149.856 47.1277 154.826 55.111 158.197 63.9227C161.699 73.0545 163.28 82.6758 162.941 92.5231C162.282 111.559 154.374 129.314 140.649 142.531C126.979 155.73 108.998 162.979 90.0377 162.979ZM89.9435 26.4164C55.5251 26.4164 27.6401 53.3787 26.454 87.7971C25.2301 122.837 52.7573 152.322 87.7783 153.546C88.5314 153.565 89.2845 153.584 90.0188 153.584C124.437 153.584 152.322 126.621 153.508 92.2031C154.732 57.1633 127.205 27.6779 92.1841 26.4541C91.4498 26.4352 90.6967 26.4164 89.9435 26.4164Z" fill="#32E2DF"/>
<path d="M90 180C77.8556 180 66.069 177.628 54.9602 172.92C44.2468 168.383 34.6255 161.906 26.3598 153.64C18.0941 145.374 11.5983 135.753 7.07952 125.04C2.39123 113.931 0 102.144 0 90C0 77.8556 2.3724 66.069 7.07952 54.9602C11.6172 44.2468 18.0941 34.6255 26.3598 26.3598C34.6255 18.0941 44.2468 11.5983 54.9602 7.07952C66.069 2.39123 77.8556 0 90 0C102.144 0 113.931 2.3724 125.04 7.07952C135.753 11.6172 145.374 18.0941 153.64 26.3598C161.906 34.6255 168.402 44.2468 172.92 54.9602C177.609 66.069 180 77.8556 180 90C180 102.144 177.628 113.931 172.92 125.04C168.383 135.753 161.906 145.374 153.64 153.64C145.374 161.906 135.753 168.402 125.04 172.92C113.931 177.628 102.144 180 90 180ZM90 9.39538C45.5649 9.39538 9.41423 45.546 9.41423 89.9812C9.41423 134.416 45.5649 170.567 90 170.567C134.435 170.567 170.586 134.416 170.586 89.9812C170.586 45.5648 134.435 9.39538 90 9.39538Z" fill="#32E2DF"/>
</svg>
