<svg width="720" height="920" viewBox="0 0 720 920" fill="none" xmlns="http://www.w3.org/2000/svg">
<g clip-path="url(#clip0_26_56)">
<rect width="720" height="920" fill="#0000FF"/>
<path d="M520.127 202.802L541.974 40L672.038 140.382L520.127 202.802Z" fill="#32E2DF"/>
<path d="M558.598 124.267L460 171.847" stroke="#19223F" stroke-width="25.4776" stroke-miterlimit="10" stroke-linecap="round"/>
<path d="M145.005 806.01C167.099 806.01 185.01 788.099 185.01 766.005C185.01 743.911 167.099 726 145.005 726C122.911 726 105 743.911 105 766.005C105 788.099 122.911 806.01 145.005 806.01Z" stroke="#32E2DF" stroke-width="28.4149" stroke-miterlimit="10"/>
<path d="M84 267.972C84 226.023 118.023 192 159.973 192C201.922 192 235.945 226.023 235.945 267.972C235.945 309.922 201.922 343.945 159.973 343.945" stroke="#19223F" stroke-width="50.8477" stroke-miterlimit="10"/>
<path d="M242.555 601.848C247.169 568.705 220.645 536.21 236.09 503.811C242.213 490.952 252.938 480.57 265.72 474.393C279.484 467.751 294.469 467.111 308.832 472.092C326.478 478.19 341.86 489.884 360.527 493.139C369.353 494.664 378.427 494.337 386.69 490.649C394.803 487.002 401.097 480.261 405.525 472.637C414.879 456.595 416.27 437.815 422.184 420.529C425.008 412.261 429.053 404.337 435.429 398.278C442.895 391.18 452.817 387.548 462.768 385.573C473.034 383.548 483.545 383.187 493.978 382.912C504.275 382.627 514.585 382.593 524.859 382.878C545.724 383.401 566.524 385.031 587.194 387.806C592.331 388.484 597.472 389.246 602.618 390.092C605.772 390.596 607.185 385.775 603.98 385.257C583.065 381.891 561.932 379.59 540.789 378.495C519.679 377.381 498.256 377.086 477.141 378.718C466.783 379.508 456.433 381.151 446.78 385.188C437.77 388.995 430.127 395.163 424.771 403.35C414.62 418.81 413.357 437.819 407.741 455.023C404.89 463.778 400.935 472.552 394.386 479.222C387.964 485.735 379.468 489.082 370.364 489.126C351.085 489.215 334.723 477.683 317.653 470.32C309.622 466.849 301.227 464.181 292.438 463.792C285.243 463.496 277.962 464.576 271.158 466.888C257.201 471.581 244.917 480.864 236.566 492.959C232.477 498.893 229.36 505.568 227.614 512.547C225.631 520.558 225.683 528.758 226.77 536.892C229.159 554.539 236.676 571.242 237.885 589.079C238.17 593.334 238.055 597.641 237.467 601.871C237.094 604.951 242.134 604.998 242.555 601.848Z" fill="#19223F"/>
<path d="M268.717 602.188C272.176 600.25 273.409 595.875 271.47 592.416C269.532 588.958 265.158 587.725 261.699 589.663C258.24 591.601 257.008 595.976 258.946 599.435C260.884 602.893 265.259 604.126 268.717 602.188Z" fill="#19223F"/>
<path d="M258.458 576.308C261.916 574.37 263.149 569.995 261.211 566.536C259.273 563.078 254.898 561.845 251.439 563.783C247.981 565.721 246.748 570.096 248.686 573.555C250.624 577.013 254.999 578.246 258.458 576.308Z" fill="#19223F"/>
<path d="M251.853 549.837C255.311 547.899 256.544 543.524 254.606 540.065C252.668 536.607 248.293 535.374 244.834 537.312C241.376 539.25 240.143 543.625 242.081 547.084C244.019 550.542 248.394 551.775 251.853 549.837Z" fill="#19223F"/>
<path d="M253.74 523.836C257.199 521.898 258.431 517.523 256.493 514.064C254.555 510.606 250.18 509.373 246.722 511.311C243.263 513.249 242.03 517.624 243.968 521.083C245.907 524.541 250.281 525.774 253.74 523.836Z" fill="#19223F"/>
<path d="M265.834 500.601C269.293 498.663 270.526 494.288 268.588 490.829C266.649 487.371 262.275 486.138 258.816 488.076C255.357 490.014 254.125 494.389 256.063 497.848C258.001 501.306 262.376 502.539 265.834 500.601Z" fill="#19223F"/>
<path d="M293.871 493.119C297.33 491.18 298.562 486.806 296.624 483.347C294.686 479.888 290.311 478.656 286.852 480.594C283.394 482.532 282.161 486.907 284.099 490.366C286.038 493.824 290.412 495.057 293.871 493.119Z" fill="#19223F"/>
<path d="M320.178 503.277C323.637 501.339 324.87 496.964 322.932 493.506C320.993 490.047 316.619 488.815 313.16 490.753C309.701 492.691 308.469 497.066 310.407 500.524C312.345 503.983 316.72 505.215 320.178 503.277Z" fill="#19223F"/>
<path d="M342.079 512.991C345.538 511.053 346.77 506.678 344.832 503.219C342.894 499.761 338.519 498.528 335.061 500.466C331.602 502.404 330.37 506.779 332.308 510.238C334.246 513.696 338.621 514.929 342.079 512.991Z" fill="#19223F"/>
<path d="M370.809 517.377C374.268 515.439 375.501 511.064 373.562 507.606C371.624 504.147 367.249 502.914 363.791 504.853C360.332 506.791 359.1 511.166 361.038 514.624C362.976 518.083 367.351 519.315 370.809 517.377Z" fill="#19223F"/>
<path d="M400.444 512.9C403.902 510.962 405.135 506.587 403.197 503.128C401.259 499.669 396.884 498.437 393.425 500.375C389.967 502.313 388.734 506.688 390.672 510.147C392.61 513.605 396.985 514.838 400.444 512.9Z" fill="#19223F"/>
<path d="M421.527 492.856C424.986 490.918 426.218 486.543 424.28 483.085C422.342 479.626 417.967 478.393 414.509 480.332C411.05 482.27 409.818 486.645 411.756 490.103C413.694 493.562 418.069 494.794 421.527 492.856Z" fill="#19223F"/>
<path d="M433.339 461.851C436.797 459.913 438.03 455.538 436.092 452.079C434.154 448.621 429.779 447.388 426.32 449.326C422.862 451.264 421.629 455.639 423.567 459.098C425.505 462.556 429.88 463.789 433.339 461.851Z" fill="#19223F"/>
<path d="M444.324 429.294C447.783 427.356 449.015 422.981 447.077 419.523C445.139 416.064 440.764 414.832 437.306 416.77C433.847 418.708 432.615 423.083 434.553 426.541C436.491 430 440.866 431.232 444.324 429.294Z" fill="#19223F"/>
<path d="M461.863 407.209C465.321 405.27 466.554 400.896 464.616 397.437C462.678 393.978 458.303 392.746 454.844 394.684C451.386 396.622 450.153 400.997 452.091 404.456C454.029 407.914 458.404 409.147 461.863 407.209Z" fill="#19223F"/>
<path d="M489.073 404.218C492.532 402.28 493.765 397.905 491.826 394.446C489.888 390.988 485.514 389.755 482.055 391.693C478.596 393.631 477.364 398.006 479.302 401.465C481.24 404.923 485.615 406.156 489.073 404.218Z" fill="#19223F"/>
<path d="M514.086 402.888C517.544 400.95 518.777 396.575 516.839 393.116C514.901 389.658 510.526 388.425 507.067 390.363C503.609 392.301 502.376 396.676 504.314 400.135C506.252 403.593 510.627 404.826 514.086 402.888Z" fill="#19223F"/>
<path d="M541.685 403.879C545.143 401.941 546.376 397.566 544.438 394.108C542.5 390.649 538.125 389.417 534.666 391.355C531.208 393.293 529.975 397.668 531.913 401.126C533.852 404.585 538.226 405.817 541.685 403.879Z" fill="#19223F"/>
<path d="M570.615 405.411C574.074 403.473 575.306 399.098 573.368 395.639C571.43 392.181 567.055 390.948 563.597 392.886C560.138 394.824 558.906 399.199 560.844 402.658C562.782 406.116 567.157 407.349 570.615 405.411Z" fill="#19223F"/>
<path d="M596.587 410.228C600.046 408.29 601.278 403.916 599.34 400.457C597.402 396.998 593.027 395.766 589.569 397.704C586.11 399.642 584.878 404.017 586.816 407.475C588.754 410.934 593.129 412.167 596.587 410.228Z" fill="#19223F"/>
<path d="M630.715 878.281C606.113 878.281 586.111 858.279 586.111 833.677C586.111 809.076 606.113 789.073 630.715 789.073C655.316 789.073 675.319 809.076 675.319 833.677C675.281 858.279 655.279 878.281 630.715 878.281ZM630.715 807.805C616.432 807.805 604.805 819.433 604.805 833.715C604.805 847.997 616.432 859.625 630.715 859.625C644.997 859.625 656.625 847.997 656.625 833.715C656.625 819.433 644.997 807.805 630.715 807.805Z" fill="#32E2DF"/>
<path d="M630.79 912.267C625.406 912.267 620.022 911.706 614.713 910.622C594.187 906.36 576.54 894.321 565.024 876.786C553.509 859.251 549.545 838.276 553.808 817.713C557.509 799.916 567.342 783.877 581.437 772.511C595.383 761.294 612.843 755.125 630.64 755.125C636.024 755.125 641.408 755.686 646.717 756.77C667.243 761.033 684.89 773.071 696.406 790.606C707.921 808.141 711.884 829.116 707.622 849.68C703.921 867.476 694.088 883.516 679.992 894.882C666.009 906.098 648.549 912.267 630.79 912.267ZM630.64 773.819C602.487 773.819 577.848 793.859 572.09 821.489C565.361 853.792 586.186 885.572 618.489 892.302C622.527 893.162 626.677 893.573 630.752 893.573C658.905 893.573 683.544 873.533 689.302 845.903C692.555 830.238 689.526 814.273 680.777 800.888C672.029 787.503 658.569 778.343 642.903 775.09C638.865 774.268 634.715 773.819 630.64 773.819Z" fill="#32E2DF"/>
<path d="M630.827 945.131C627.387 945.131 623.91 944.982 620.433 944.645C590.784 941.916 564.015 927.783 544.984 904.902C525.954 882.02 517.018 853.082 519.747 823.471C522.327 795.654 535.114 769.968 555.827 751.237C576.39 732.58 602.936 722.336 630.565 722.336C634.005 722.336 637.482 722.485 640.959 722.822C670.608 725.551 697.378 739.684 716.408 762.565C735.439 785.447 744.375 814.385 741.645 844.034C739.065 871.851 726.279 897.536 705.566 916.268C685.002 934.849 658.457 945.131 630.827 945.131ZM630.565 740.993C582.447 740.993 542.816 777.184 538.366 825.19C533.656 876.113 571.231 921.352 622.153 926.063C625.032 926.325 627.948 926.475 630.827 926.475C678.946 926.475 718.577 890.283 723.026 842.277C727.737 791.354 690.162 746.115 639.239 741.404C636.361 741.105 633.444 740.993 630.565 740.993Z" fill="#32E2DF"/>
<path d="M630.79 978.631C629.107 978.631 627.387 978.593 625.667 978.556C606.113 977.883 587.27 973.396 569.66 965.208C552.649 957.32 537.544 946.327 524.682 932.569C511.821 918.81 501.95 902.957 495.258 885.46C488.304 867.327 485.163 848.221 485.836 828.667C487.145 790.868 502.848 755.611 530.104 729.365C557.247 703.193 592.953 688.761 630.603 688.761C632.285 688.761 634.005 688.799 635.725 688.836C655.279 689.509 674.122 693.996 691.732 702.184C708.744 710.072 723.848 721.065 736.71 734.823C749.571 748.582 759.442 764.435 766.134 781.932C773.088 800.065 776.229 819.171 775.556 838.725C774.247 876.524 758.544 911.781 731.289 938.027C704.145 964.236 668.439 978.631 630.79 978.631ZM630.603 707.455C562.257 707.455 506.886 760.995 504.53 829.34C502.1 898.919 556.761 957.469 626.303 959.899C627.799 959.937 629.294 959.974 630.752 959.974C699.098 959.974 754.469 906.435 756.825 838.089C759.255 768.51 704.594 709.96 635.052 707.53C633.594 707.493 632.098 707.455 630.603 707.455Z" fill="#32E2DF"/>
<path d="M630.715 1012.43C606.6 1012.43 583.195 1007.72 561.136 998.372C539.862 989.361 520.757 976.5 504.343 960.086C487.93 943.673 475.031 924.568 466.058 903.294C456.748 881.235 452 857.83 452 833.715C452 809.6 456.711 786.195 466.058 764.136C475.068 742.862 487.93 723.757 504.343 707.343C520.757 690.93 539.862 678.031 561.136 669.058C583.195 659.748 606.6 655 630.715 655C654.83 655 678.235 659.711 700.294 669.058C721.568 678.068 740.673 690.93 757.086 707.343C773.5 723.757 786.399 742.862 795.372 764.136C804.681 786.195 809.43 809.6 809.43 833.715C809.43 857.83 804.719 881.235 795.372 903.294C786.361 924.568 773.5 943.673 757.086 960.086C740.673 976.5 721.568 989.399 700.294 998.372C678.235 1007.72 654.83 1012.43 630.715 1012.43ZM630.715 673.657C542.479 673.657 470.694 745.442 470.694 833.677C470.694 921.913 542.479 993.698 630.715 993.698C718.951 993.698 790.736 921.913 790.736 833.677C790.736 745.479 718.951 673.657 630.715 673.657Z" fill="#32E2DF"/>
</g>
<defs>
<clipPath id="clip0_26_56">
<rect width="720" height="920" fill="white"/>
</clipPath>
</defs>
</svg>
