<svg width="855" height="800" viewBox="0 0 855 800" fill="none" xmlns="http://www.w3.org/2000/svg">
<g clip-path="url(#clip0_30_41)">
<rect width="854.945" height="800" fill="#F8F8F8"/>
<path d="M100.005 127.01C122.099 127.01 140.01 109.099 140.01 87.0052C140.01 64.9109 122.099 47 100.005 47C77.9109 47 60 64.9109 60 87.0052C60 109.099 77.9109 127.01 100.005 127.01Z" stroke="#32E2DF" stroke-width="28.4149" stroke-miterlimit="10"/>
<path d="M100.127 763.802L121.975 601L252.038 701.382L100.127 763.802Z" fill="#32E2DF"/>
<path d="M138.598 685.267L40 732.847" stroke="#19223F" stroke-width="25.4776" stroke-miterlimit="10" stroke-linecap="round"/>
<path d="M798.522 841.302C756.822 836.743 726.698 799.223 731.257 757.522C735.816 715.822 773.335 685.698 815.036 690.257C856.737 694.816 886.861 732.335 882.302 774.036" stroke="#19223F" stroke-width="50.8477" stroke-miterlimit="10"/>
<path d="M909.798 226.181C876.991 232.773 855.08 268.541 819.398 264.663C805.238 263.132 791.896 256.437 781.844 246.413C771.029 235.615 765.476 221.682 765.433 206.481C765.36 187.811 771.318 169.429 768.224 150.735C766.749 141.9 763.443 133.444 757.233 126.863C751.111 120.409 742.669 116.695 734.01 115.034C715.779 111.503 697.594 116.393 679.325 116.52C670.588 116.586 661.772 115.385 653.948 111.367C644.782 106.665 638.077 98.4991 632.926 89.7599C627.624 80.7386 623.811 70.9362 620.106 61.1801C616.436 51.5543 612.999 41.8346 609.875 32.0424C603.476 12.1761 598.145 -7.99493 593.937 -28.4211C592.881 -33.4942 591.902 -38.5986 591 -43.7344C590.434 -46.8778 585.418 -46.6194 585.987 -43.4232C589.718 -22.5702 594.526 -1.86349 600.476 18.4545C606.397 38.7478 613.194 59.0662 621.708 78.4569C625.875 87.9725 630.845 97.1998 637.843 104.977C644.412 112.224 652.759 117.401 662.255 119.752C680.201 124.227 698.559 119.141 716.654 118.76C725.859 118.559 735.447 119.394 743.905 123.372C752.173 127.283 758.139 134.197 761.187 142.775C767.639 160.943 762.159 180.196 760.847 198.739C760.223 207.466 760.478 216.271 763.014 224.696C765.11 231.585 768.534 238.1 772.965 243.759C782.003 255.382 794.823 263.911 808.997 267.799C815.949 269.698 823.279 270.435 830.443 269.779C838.659 269.004 846.382 266.247 853.7 262.534C869.568 254.451 882.851 241.839 899.287 234.806C903.21 233.132 907.313 231.818 911.499 230.976C914.53 230.311 912.91 225.537 909.798 226.181Z" fill="#19223F"/>
<path d="M857.634 234.584C854.662 231.959 850.126 232.241 847.502 235.212C844.877 238.184 845.159 242.721 848.131 245.345C851.102 247.969 855.639 247.688 858.263 244.716C860.887 241.744 860.606 237.208 857.634 234.584Z" fill="#19223F"/>
<path d="M832.469 241.39C829.497 238.766 824.961 239.047 822.336 242.019C819.712 244.991 819.994 249.527 822.965 252.151C825.937 254.776 830.473 254.494 833.098 251.523C835.722 248.551 835.44 244.014 832.469 241.39Z" fill="#19223F"/>
<path d="M806.543 237.649C803.572 235.024 799.035 235.306 796.411 238.278C793.787 241.249 794.068 245.786 797.04 248.41C800.011 251.034 804.548 250.753 807.172 247.781C809.797 244.809 809.515 240.273 806.543 237.649Z" fill="#19223F"/>
<path d="M790.221 213.657C787.249 211.033 782.713 211.314 780.088 214.286C777.464 217.257 777.746 221.794 780.717 224.418C783.689 227.042 788.225 226.761 790.85 223.789C793.474 220.818 793.192 216.281 790.221 213.657Z" fill="#19223F"/>
<path d="M791.12 185.471C788.149 182.846 783.612 183.128 780.988 186.099C778.363 189.071 778.645 193.608 781.617 196.232C784.588 198.856 789.125 198.575 791.749 195.603C794.373 192.631 794.092 188.095 791.12 185.471Z" fill="#19223F"/>
<path d="M793.055 161.591C790.083 158.966 785.547 159.248 782.923 162.219C780.298 165.191 780.58 169.728 783.551 172.352C786.523 174.976 791.06 174.695 793.684 171.723C796.308 168.751 796.027 164.215 793.055 161.591Z" fill="#19223F"/>
<path d="M787.706 133.024C784.735 130.4 780.198 130.681 777.574 133.653C774.949 136.624 775.231 141.161 778.203 143.785C781.174 146.41 785.711 146.128 788.335 143.156C790.959 140.185 790.678 135.648 787.706 133.024Z" fill="#19223F"/>
<path d="M773.692 106.531C770.72 103.907 766.184 104.189 763.56 107.16C760.935 110.132 761.217 114.668 764.188 117.293C767.16 119.917 771.697 119.635 774.321 116.664C776.945 113.692 776.664 109.156 773.692 106.531Z" fill="#19223F"/>
<path d="M747.81 93.2513C744.838 90.627 740.302 90.9085 737.677 93.8802C735.053 96.8519 735.334 101.388 738.306 104.013C741.278 106.637 745.814 106.355 748.439 103.384C751.063 100.412 750.781 95.8757 747.81 93.2513Z" fill="#19223F"/>
<path d="M714.643 92.3432C711.672 89.7189 707.135 90.0004 704.511 92.9721C701.886 95.9437 702.168 100.48 705.14 103.105C708.111 105.729 712.648 105.447 715.272 102.476C717.896 99.504 717.615 94.9676 714.643 92.3432Z" fill="#19223F"/>
<path d="M680.285 92.7273C677.314 90.103 672.777 90.3846 670.153 93.3562C667.529 96.3279 667.81 100.864 670.782 103.489C673.754 106.113 678.29 105.831 680.914 102.86C683.539 99.8882 683.257 95.3517 680.285 92.7273Z" fill="#19223F"/>
<path d="M653.646 83.4676C650.675 80.8433 646.138 81.1248 643.514 84.0965C640.89 87.0681 641.171 91.6046 644.143 94.2289C647.114 96.8533 651.651 96.5717 654.275 93.6001C656.9 90.6284 656.618 86.092 653.646 83.4676Z" fill="#19223F"/>
<path d="M641.836 58.772C638.864 56.1476 634.328 56.4292 631.704 59.4008C629.079 62.3725 629.361 66.9089 632.332 69.5333C635.304 72.1576 639.841 71.876 642.465 68.9044C645.089 65.9327 644.808 61.3963 641.836 58.772Z" fill="#19223F"/>
<path d="M632.319 35.6028C629.348 32.9784 624.811 33.2599 622.187 36.2316C619.562 39.2032 619.844 43.7397 622.816 46.3641C625.787 48.9884 630.324 48.7068 632.948 45.7352C635.572 42.7635 635.291 38.2271 632.319 35.6028Z" fill="#19223F"/>
<path d="M624.14 9.22484C621.168 6.60051 616.631 6.88206 614.007 9.85371C611.383 12.8254 611.664 17.3618 614.636 19.9861C617.608 22.6105 622.144 22.3289 624.768 19.3573C627.393 16.3856 627.111 11.8492 624.14 9.22484Z" fill="#19223F"/>
</g>
<defs>
<clipPath id="clip0_30_41">
<rect width="854.945" height="800" fill="white"/>
</clipPath>
</defs>
</svg>
